<svg width="166" height="70" viewBox="0 0 166 70" fill="none" xmlns="http://www.w3.org/2000/svg">
<rect width="166" height="70" rx="20" fill="#AF2732"/>
<path d="M49.176 52.032H56.952C52.92 46.224 48.84 40.464 44.712 34.704L56.28 19.104C53.928 19.104 51.624 19.056 49.224 19.056C45.336 24.48 41.304 29.904 37.368 35.376C41.304 40.848 45.288 46.512 49.176 52.032ZM30.36 52.032H37.128V19.104H30.36V52.032ZM60.4436 52.032H66.7796V27.168H60.4436V52.032ZM60.3956 23.424H66.8276V18.048H60.3956V23.424ZM83.1443 52.464C86.6963 52.464 89.0003 51.552 90.5843 50.592V46.032C89.3363 46.656 87.2723 47.52 84.3443 47.52C79.7843 47.52 77.6723 45.264 77.6723 39.792V38.832C77.6723 33.984 80.1203 31.68 84.1523 31.68C87.0323 31.68 88.4243 32.16 90.3443 32.928V28.176C88.7603 27.264 86.7923 26.688 83.5763 26.688C76.2323 26.688 71.1443 30.864 71.1443 39.408V40.128C71.1443 48.288 75.5603 52.464 83.1443 52.464ZM94.611 52.032H100.947V16.944H94.611V52.032ZM109.587 52.032H116.403C112.851 46.704 111.075 44.064 107.571 38.736L115.827 27.216H109.395C106.035 31.968 104.307 34.32 101.043 39.168C104.355 44.352 106.083 46.848 109.587 52.032ZM126.934 52.464C133.366 52.464 136.822 49.776 136.822 44.544C136.822 40.224 134.95 38.112 130.054 37.104L127.702 36.624C125.398 36.192 124.486 35.616 124.486 33.984C124.486 32.256 125.878 31.392 128.71 31.392C131.59 31.392 133.894 32.064 135.43 32.592V28.08C133.702 27.312 131.494 26.736 128.086 26.736C121.654 26.736 118.582 29.76 118.582 34.416C118.582 39.024 121.078 40.944 124.966 41.712L127.27 42.24C129.814 42.72 130.726 43.44 130.726 45.072C130.726 46.8 129.382 47.76 126.022 47.76C122.566 47.76 120.598 47.04 118.678 46.224V50.736C120.598 51.792 123.67 52.464 126.934 52.464Z" fill="white"/>
</svg>
