<svg width="100%" height="100%" viewBox="0 0 24 24" fill="none" xmlns="http://www.w3.org/2000/svg">
<mask id="path-1-inside-1_761_3189" fill="white">
<path fill-rule="evenodd" clip-rule="evenodd" d="M20.9978 18C21.8163 18 22.2881 17.0704 21.805 16.4098L19.5799 13.3666C19.4546 13.1953 19.3871 12.9886 19.3871 12.7764V9.3878C19.3871 5.30763 16.0795 2 11.9993 2C7.91916 2 4.61153 5.30763 4.61153 9.3878V12.7777C4.61153 12.9899 4.54402 13.1966 4.41876 13.3679L2.19456 16.4098C1.71147 17.0704 2.18332 18 3.00179 18H7.99249C8.48716 18 8.83386 18.5053 8.83386 19C8.83386 20.6569 10.2514 22 12.0001 22C13.7487 22 15.1663 20.6569 15.1663 19C15.1663 18.5053 15.513 18 16.0076 18H20.9978Z"/>
</mask>
<path d="M2.19456 16.4098L0.580115 15.2293L2.19456 16.4098ZM21.805 16.4098L20.1906 17.5902L21.805 16.4098ZM4.41876 13.3679L2.80431 12.1874L4.41876 13.3679ZM19.5799 13.3666L17.9654 14.5471L19.5799 13.3666ZM17.9654 14.5471L20.1906 17.5902L23.4195 15.2293L21.1943 12.1861L17.9654 14.5471ZM17.3871 9.3878V12.7764H21.3871V9.3878H17.3871ZM11.9993 4C14.9749 4 17.3871 6.4122 17.3871 9.3878H21.3871C21.3871 4.20306 17.1841 0 11.9993 0V4ZM6.61153 9.3878C6.61153 6.4122 9.02373 4 11.9993 4V0C6.81459 0 2.61153 4.20306 2.61153 9.3878H6.61153ZM6.61153 12.7777V9.3878H2.61153V12.7777H6.61153ZM3.80901 17.5902L6.03321 14.5484L2.80431 12.1874L0.580115 15.2293L3.80901 17.5902ZM7.99249 16H3.00179V20H7.99249V16ZM12.0001 20C11.253 20 10.8339 19.452 10.8339 19H6.83386C6.83386 21.8617 9.24982 24 12.0001 24V20ZM13.1663 19C13.1663 19.452 12.7471 20 12.0001 20V24C14.7503 24 17.1663 21.8617 17.1663 19H13.1663ZM20.9978 16H16.0076V20H20.9978V16ZM7.99249 20C7.50395 20 7.17564 19.7397 7.02873 19.5536C6.89397 19.3828 6.83386 19.1946 6.83386 19H10.8339C10.8339 18.3107 10.6004 17.6225 10.1686 17.0754C9.72469 16.513 8.97569 16 7.99249 16V20ZM0.580115 15.2293C-0.869162 17.2113 0.546391 20 3.00179 20V16C3.82026 16 4.2921 16.9296 3.80901 17.5902L0.580115 15.2293ZM20.1906 17.5902C19.7075 16.9296 20.1794 16 20.9978 16V20C23.4532 20 24.8688 17.2113 23.4195 15.2293L20.1906 17.5902ZM2.61153 12.7777C2.61153 12.5655 2.67905 12.3587 2.80431 12.1874L6.03321 14.5484C6.40899 14.0345 6.61153 13.4143 6.61153 12.7777H2.61153ZM17.1663 19C17.1663 19.1946 17.1061 19.3828 16.9714 19.5536C16.8245 19.7397 16.4962 20 16.0076 20V16C15.0244 16 14.2754 16.513 13.8315 17.0754C13.3997 17.6225 13.1663 18.3107 13.1663 19H17.1663ZM21.1943 12.1861C21.3196 12.3574 21.3871 12.5642 21.3871 12.7764H17.3871C17.3871 13.413 17.5897 14.0332 17.9654 14.5471L21.1943 12.1861Z" fill="white" mask="url(#path-1-inside-1_761_3189)"/>
</svg>
