<svg width="100%" height="100%" viewBox="0 0 20 20" fill="none" xmlns="http://www.w3.org/2000/svg">
<mask id="path-1-inside-1_367_1127" fill="white">
<path fill-rule="evenodd" clip-rule="evenodd" d="M20 1C20 0.447715 19.5523 0 19 0H1C0.447715 0 0 0.447714 0 0.999999V13.598C0 14.1503 0.447716 14.598 1 14.598H6.07101C6.68278 14.598 7.15115 15.1424 7.0598 15.7473L6.59226 18.8434C6.45452 19.7555 7.52013 20.3518 8.22551 19.7573L14.0678 14.8333C14.2482 14.6813 14.4764 14.598 14.7123 14.598H19C19.5523 14.598 20 14.1503 20 13.598V1Z"/>
</mask>
<path d="M14.0678 14.8333L12.7789 13.3041L14.0678 14.8333ZM1 2H19V-2H1V2ZM2 13.598V0.999999H-2V13.598H2ZM6.07101 12.598H1V16.598H6.07101V12.598ZM8.56984 19.142L9.03738 16.0459L5.08222 15.4487L4.61469 18.5448L8.56984 19.142ZM12.7789 13.3041L6.9366 18.2281L9.51441 21.2866L15.3567 16.3626L12.7789 13.3041ZM19 12.598H14.7123V16.598H19V12.598ZM18 1V13.598H22V1H18ZM19 16.598C20.6569 16.598 22 15.2548 22 13.598H18C18 13.0457 18.4477 12.598 19 12.598V16.598ZM15.3567 16.3626C15.1764 16.5146 14.9481 16.598 14.7123 16.598V12.598C14.0047 12.598 13.32 12.8481 12.7789 13.3041L15.3567 16.3626ZM4.61469 18.5448C4.20146 21.2812 7.3983 23.0701 9.51441 21.2866L6.9366 18.2281C7.64197 17.6336 8.70759 18.2299 8.56984 19.142L4.61469 18.5448ZM6.07101 16.598C5.45924 16.598 4.99088 16.0536 5.08222 15.4487L9.03738 16.0459C9.31142 14.2312 7.90631 12.598 6.07101 12.598V16.598ZM-2 13.598C-2 15.2548 -0.65685 16.598 1 16.598V12.598C1.55228 12.598 2 13.0457 2 13.598H-2ZM19 2C18.4477 2 18 1.55229 18 1H22C22 -0.656855 20.6569 -2 19 -2V2ZM1 -2C-0.656851 -2 -2 -0.656858 -2 0.999999H2C2 1.55229 1.55228 2 1 2V-2Z" fill="black" mask="url(#path-1-inside-1_367_1127)"/>
</svg>
