<svg width="100%" height="100%" viewBox="0 0 24 24" fill="none" xmlns="http://www.w3.org/2000/svg">
<circle cx="12" cy="12" r="12" fill="#AF2732"/>
<path fill-rule="evenodd" clip-rule="evenodd" d="M12.9992 5C12.9992 4.44772 12.5515 4 11.9992 4C11.4469 4 10.9992 4.44772 10.9992 5V10.9988H5C4.44772 10.9988 4 11.4465 4 11.9988C4 12.5511 4.44772 12.9988 5 12.9988H10.9992V18.9974C10.9992 19.5497 11.4469 19.9974 11.9992 19.9974C12.5515 19.9974 12.9992 19.5497 12.9992 18.9974V12.9988H18.9974C19.5497 12.9988 19.9974 12.5511 19.9974 11.9988C19.9974 11.4465 19.5497 10.9988 18.9974 10.9988H12.9992V5Z" fill="white"/>
</svg>

