<svg width="100%" height="100%" viewBox="0 0 20 20" fill="none" xmlns="http://www.w3.org/2000/svg">
<mask id="path-1-inside-1_682_254" fill="white">
<path fill-rule="evenodd" clip-rule="evenodd" d="M10.6795 0.266053C10.2961 -0.0886841 9.70438 -0.0886846 9.32105 0.266053L0.322806 8.59318C-0.344861 9.21105 0.0923187 10.3271 1.00201 10.3271H1.88658C2.43886 10.3271 2.88658 10.7748 2.88658 11.3271V18.9988C2.88658 19.551 3.33429 19.9988 3.88658 19.9988H16.1139C16.6662 19.9988 17.1139 19.551 17.1139 18.9988V11.3271C17.1139 10.7748 17.5616 10.3271 18.1139 10.3271H18.9985C19.9082 10.3271 20.3454 9.21105 19.6777 8.59318L10.6795 0.266053Z"/>
</mask>
<path d="M9.32105 0.266053L7.96264 -1.20184L7.96264 -1.20184L9.32105 0.266053ZM10.6795 0.266053L9.32105 1.73395L9.32105 1.73395L10.6795 0.266053ZM0.322806 8.59318L-1.03561 7.12528L-1.03561 7.12528L0.322806 8.59318ZM19.6777 8.59318L18.3193 10.0611V10.0611L19.6777 8.59318ZM10.6795 1.73395C10.2961 2.08868 9.70438 2.08868 9.32105 1.73395L12.0379 -1.20184C10.8879 -2.26605 9.11262 -2.26605 7.96264 -1.20184L10.6795 1.73395ZM1.68122 10.0611L10.6795 1.73395L7.96264 -1.20184L-1.03561 7.12528L1.68122 10.0611ZM1.00201 8.32712C1.91171 8.32712 2.34889 9.4432 1.68122 10.0611L-1.03561 7.12528C-3.03861 8.9789 -1.72707 12.3271 1.00201 12.3271V8.32712ZM1.88658 8.32712H1.00201V12.3271H1.88658V8.32712ZM4.88658 18.9988V11.3271H0.886578V18.9988H4.88658ZM3.88658 17.9988C4.43886 17.9988 4.88658 18.4465 4.88658 18.9988H0.886578C0.886578 20.6556 2.22972 21.9988 3.88658 21.9988V17.9988ZM16.1139 17.9988H3.88658V21.9988H16.1139V17.9988ZM15.1139 18.9988C15.1139 18.4465 15.5616 17.9988 16.1139 17.9988V21.9988C17.7708 21.9988 19.1139 20.6556 19.1139 18.9988H15.1139ZM15.1139 11.3271V18.9988H19.1139V11.3271H15.1139ZM18.9985 8.32712H18.1139V12.3271H18.9985V8.32712ZM18.3193 10.0611C17.6516 9.44319 18.0888 8.32712 18.9985 8.32712V12.3271C21.7276 12.3271 23.0391 8.97891 21.0361 7.12529L18.3193 10.0611ZM9.32105 1.73395L18.3193 10.0611L21.0361 7.12529L12.0379 -1.20184L9.32105 1.73395ZM19.1139 11.3271C19.1139 11.8794 18.6662 12.3271 18.1139 12.3271V8.32712C16.457 8.32712 15.1139 9.67027 15.1139 11.3271H19.1139ZM1.88658 12.3271C1.33429 12.3271 0.886578 11.8794 0.886578 11.3271H4.88658C4.88658 9.67027 3.54343 8.32712 1.88658 8.32712V12.3271Z" fill="black" mask="url(#path-1-inside-1_682_254)"/>
</svg>
