<svg width="100%" height="100%" viewBox="0 0 20 20" fill="none" xmlns="http://www.w3.org/2000/svg">
<mask id="path-1-inside-1_682_323" fill="white">
<path fill-rule="evenodd" clip-rule="evenodd" d="M12.765 10.6371C12.765 10.3528 12.9185 10.0936 13.1508 9.9296C14.5473 8.94373 15.4608 7.30698 15.4608 5.45455C15.4608 2.44208 13.0449 0 10.0647 0C7.08446 0 4.66852 2.44208 4.66852 5.45455C4.66852 7.31549 5.59047 8.95877 6.99787 9.94315C7.22143 10.0995 7.36879 10.3484 7.36879 10.6212C7.36879 10.9748 7.12584 11.28 6.78755 11.3831C3.14546 12.4929 0.436818 15.4379 0.006433 19.002C-0.0597774 19.5503 0.394258 20 0.946542 20L19.0533 20C19.6056 20 20.0596 19.5503 19.9934 19.002C19.5689 15.4865 16.928 12.5734 13.361 11.4296C13.0133 11.3181 12.765 11.0022 12.765 10.6371Z"/>
</mask>
<path d="M13.361 11.4296L13.9717 9.52509L13.361 11.4296ZM19.0533 20L19.0533 18L19.0533 20ZM19.9934 19.002L21.979 18.7622L19.9934 19.002ZM6.99787 9.94315L5.85157 11.582L6.99787 9.94315ZM6.78755 11.3831L7.37053 13.2962L6.78755 11.3831ZM13.1508 9.9296L11.9973 8.29571L13.1508 9.9296ZM14.3042 11.5635C16.2135 10.2156 17.4608 7.9786 17.4608 5.45455H13.4608C13.4608 6.63536 12.8811 7.67185 11.9973 8.29571L14.3042 11.5635ZM17.4608 5.45455C17.4608 1.35786 14.1697 -2 10.0647 -2V2C11.9201 2 13.4608 3.52631 13.4608 5.45455H17.4608ZM10.0647 -2C5.95965 -2 2.66852 1.35786 2.66852 5.45455H6.66852C6.66852 3.52631 8.20927 2 10.0647 2V-2ZM2.66852 5.45455C2.66852 7.99022 3.9273 10.2361 5.85157 11.582L8.14417 8.30425C7.25365 7.68139 6.66852 6.64076 6.66852 5.45455H2.66852ZM1.99201 19.2418C2.31471 16.5694 4.37894 14.2078 7.37053 13.2962L6.20458 9.46992C1.91198 10.778 -1.44107 14.3063 -1.97914 18.7622L1.99201 19.2418ZM19.0533 18L0.946542 18L0.946543 22L19.0533 22L19.0533 18ZM12.7502 13.334C15.6777 14.2728 17.6895 16.6057 18.0079 19.2418L21.979 18.7622C21.4483 14.3674 18.1782 10.874 13.9717 9.52509L12.7502 13.334ZM13.9717 9.52509C14.3855 9.65778 14.765 10.0652 14.765 10.6371H10.765C10.765 11.9392 11.6412 12.9784 12.7502 13.334L13.9717 9.52509ZM19.0533 22C20.6365 22 22.2085 20.6631 21.979 18.7622L18.0079 19.2418C17.9107 18.4375 18.5747 18 19.0533 18L19.0533 22ZM-1.97914 18.7622C-2.20867 20.663 -0.636654 22 0.946543 22L0.946542 18C1.42517 18 2.08912 18.4376 1.99201 19.2418L-1.97914 18.7622ZM5.85157 11.582C5.61517 11.4167 5.36879 11.0878 5.36879 10.6212H9.36879C9.36879 9.60894 8.82768 8.78232 8.14417 8.30425L5.85157 11.582ZM5.36879 10.6212C5.36879 10.0288 5.76599 9.60357 6.20458 9.46992L7.37053 13.2962C8.48569 12.9564 9.36879 11.9209 9.36879 10.6212H5.36879ZM11.9973 8.29571C11.3122 8.77939 10.765 9.61306 10.765 10.6371H14.765C14.765 11.0925 14.5248 11.4077 14.3042 11.5635L11.9973 8.29571Z" fill="black" mask="url(#path-1-inside-1_682_323)"/>
</svg>
