<svg width="21" height="21" viewBox="0 0 21 21" fill="none" xmlns="http://www.w3.org/2000/svg">
<path fill-rule="evenodd" clip-rule="evenodd" d="M13.7691 7.88453C13.7691 11.1345 11.1345 13.7691 7.88453 13.7691C4.6346 13.7691 2 11.1345 2 7.88453C2 4.6346 4.6346 2 7.88453 2C11.1345 2 13.7691 4.6346 13.7691 7.88453ZM13.3308 14.745C12.9747 14.3889 12.4128 14.3595 11.9828 14.6216C10.7886 15.3496 9.38553 15.7691 7.88453 15.7691C3.53003 15.7691 0 12.239 0 7.88453C0 3.53003 3.53003 0 7.88453 0C12.239 0 15.7691 3.53003 15.7691 7.88453C15.7691 9.38553 15.3496 10.7886 14.6216 11.9828C14.3595 12.4128 14.3889 12.9747 14.745 13.3308L19.7113 18.2971C20.1019 18.6876 20.1019 19.3208 19.7113 19.7113V19.7113C19.3208 20.1019 18.6876 20.1019 18.2971 19.7113L13.3308 14.745Z" fill="black"/>
</svg>
