<svg width="60" height="40" viewBox="0 0 60 40" fill="none" xmlns="http://www.w3.org/2000/svg">
<circle cx="37" cy="12" r="2" fill="#D1D1D1"/>
<mask id="path-2-inside-1_749_2879" fill="white">
<path fill-rule="evenodd" clip-rule="evenodd" d="M43.2939 3.51403C43.2939 1.57329 41.7206 0 39.7799 0H4C1.79086 0 0 1.79086 0 4V36C0 38.2091 1.79086 40 4 40H39.7799C41.7206 40 43.2939 38.4267 43.2939 36.486C43.2939 33.7855 46.2132 32.0942 48.5559 33.4375L54.0112 36.5655C56.6779 38.0946 60.0009 36.1694 60.0009 33.0955V20V6.90448C60.0009 3.83056 56.6779 1.90541 54.0112 3.43445L48.5559 6.56249C46.2132 7.90576 43.2939 6.2145 43.2939 3.51403Z"/>
</mask>
<path d="M54.0112 36.5655L53.0164 38.3006L54.0112 36.5655ZM48.5559 33.4375L47.5611 35.1725L48.5559 33.4375ZM4 2H39.7799V-2H4V2ZM2 36V4H-2V36H2ZM39.7799 38H4V42H39.7799V38ZM47.5611 35.1725L53.0164 38.3006L55.0061 34.8305L49.5508 31.7025L47.5611 35.1725ZM62.0009 33.0955V20H58.0009V33.0955H62.0009ZM62.0009 20V6.90448H58.0009V20H62.0009ZM53.0164 1.69943L47.5611 4.82747L49.5508 8.2975L55.0061 5.16947L53.0164 1.69943ZM47.5611 4.82747C46.5517 5.40623 45.2939 4.67754 45.2939 3.51403H41.2939C41.2939 7.75146 45.8748 10.4053 49.5508 8.2975L47.5611 4.82747ZM62.0009 6.90448C62.0009 2.2936 57.0164 -0.594124 53.0164 1.69943L55.0061 5.16947C56.3394 4.40495 58.0009 5.36752 58.0009 6.90448H62.0009ZM53.0164 38.3006C57.0164 40.5941 62.0009 37.7064 62.0009 33.0955H58.0009C58.0009 34.6325 56.3394 35.5951 55.0061 34.8305L53.0164 38.3006ZM45.2939 36.486C45.2939 35.3225 46.5517 34.5938 47.5611 35.1725L49.5508 31.7025C45.8748 29.5947 41.2939 32.2485 41.2939 36.486H45.2939ZM39.7799 42C42.8252 42 45.2939 39.5313 45.2939 36.486H41.2939C41.2939 37.3221 40.6161 38 39.7799 38V42ZM-2 36C-2 39.3137 0.686288 42 4 42V38C2.89543 38 2 37.1046 2 36H-2ZM39.7799 2C40.6161 2 41.2939 2.67785 41.2939 3.51403H45.2939C45.2939 0.468719 42.8252 -2 39.7799 -2V2ZM4 -2C0.686291 -2 -2 0.686293 -2 4H2C2 2.89543 2.89543 2 4 2V-2Z" fill="#D1D1D1" mask="url(#path-2-inside-1_749_2879)"/>
</svg>
